<svg id="SvgjsSvg1001" width="288" height="288" xmlns="http://www.w3.org/2000/svg" version="1.1" xmlns:xlink="http://www.w3.org/1999/xlink" xmlns:svgjs="http://svgjs.com/svgjs"><defs id="SvgjsDefs1002"></defs><g id="SvgjsG1008" transform="matrix(0.9167,0,0,0.9167,12.226661091995254,12.182625000000002)"><!--?xml version="1.0" encoding="utf-8"?--><svg xmlns="http://www.w3.org/2000/svg" xmlns:xlink="http://www.w3.org/1999/xlink" version="1.1" id="Layer_1" x="0px" y="0px" viewBox="0 0 128 128" style="enable-background:new 0 0 128 128;" xml:space="preserve" width="288" height="288">
<style type="text/css">
	.st0{fill:none;stroke:#00AEEF;stroke-width:4;stroke-linecap:round;stroke-linejoin:round;stroke-miterlimit:10;}
</style>
<circle class="st0" cx="90" cy="102" r="8" style="fill: none; stroke: #00AEEF; stroke-linecap: round; stroke-linejoin: round; stroke-miterlimit: 10; stroke-width: 4;"></circle>
<circle class="st0" cx="50" cy="102" r="8" style="fill: none; stroke: #00AEEF; stroke-linecap: round; stroke-linejoin: round; stroke-miterlimit: 10; stroke-width: 4;"></circle>
<path class="st0" d="M30,34h83.1c2.8,0,4.7,2.8,3.7,5.4l-15.9,41.4C99.7,84,96.7,86,93.4,86H46.6c-3.8,0-7.1-2.7-7.9-6.5L30,34z" style="fill: none; stroke: #00AEEF; stroke-linecap: round; stroke-linejoin: round; stroke-miterlimit: 10; stroke-width: 4;"></path>
<path class="st0" d="M29.9,34l-1.5-7.6c-0.7-3.7-4-6.4-7.8-6.4h-7.2" style="fill: none; stroke: #00AEEF; stroke-linecap: round; stroke-linejoin: round; stroke-miterlimit: 10; stroke-width: 4;"></path>
<line class="st0" x1="90.9" y1="46" x2="93.9" y2="46" style="fill: none; stroke: #00AEEF; stroke-linecap: round; stroke-linejoin: round; stroke-miterlimit: 10; stroke-width: 4;"></line>
<line class="st0" x1="33" y1="46" x2="81.9" y2="46" style="fill: none; stroke: #00AEEF; stroke-linecap: round; stroke-linejoin: round; stroke-miterlimit: 10; stroke-width: 4;"></line>

	
	
	<metadata>
		<rdf:rdf xmlns:rdf="http://www.w3.org/1999/02/22-rdf-syntax-ns#" xmlns:rdfs="http://www.w3.org/2000/01/rdf-schema#" xmlns:dc="http://purl.org/dc/elements/1.1/">
			<rdf:description about="https://iconscout.com/legal#licenses" dc:title="Cart, Shop, Shopping, Cart, Store" dc:description="Cart, Shop, Shopping, Cart, Store" dc:publisher="Iconscout" dc:date="2016-12-14" dc:format="image/svg+xml" dc:language="en">
				<dc:creator>
					<rdf:bag>
						<rdf:li>Kirill Kazachek</rdf:li>
					</rdf:bag>
				</dc:creator>
			</rdf:description>
		</rdf:rdf>
    </metadata></svg>
</g></svg>