<svg id="SvgjsSvg1001" width="288" height="288" xmlns="http://www.w3.org/2000/svg" version="1.1" xmlns:xlink="http://www.w3.org/1999/xlink" xmlns:svgjs="http://svgjs.com/svgjs"><g id="SvgjsG1080" transform="matrix(0.62,0,0,0.62,54.72,54.72)" fill="#fe494c"><circle id="SvgjsCircle1081" r="144" cx="144" cy="144"></circle><rect id="SvgjsRect1082" width="184" height="184" x="104" y="104" rx="40" ry="40"></rect></g><defs id="SvgjsDefs1002"></defs><g id="SvgjsG1008" transform="matrix(0.7699999999999999,0,0,0.7699999999999999,32.95173023462297,33.12008071899416)"><svg xmlns="http://www.w3.org/2000/svg" width="288" height="288" viewBox="0 0 100 100"><g transform="translate(-1345 -1643.362)" fill="#965252" class="color000 svgShape"><g transform="translate(-2.004 514)" fill="#965252" class="color000 svgShape"><path fill="#fe494c" d="m 1393,1192.3622 3.5,0 33,0 c 1.385,0 2.5,-1.115 2.5,-2.5 0,-1.385 -1.115,-2.5 -2.5,-2.5 l -1.5,0 -0.5,0 c -1.385,0 -2.5,-1.115 -2.5,-2.5 0,-1.385 1.115,-2.5 2.5,-2.5 l 0.5,0 5.5,0 c 1.385,0 2.5,-1.115 2.5,-2.5 0,-1.385 -1.115,-2.5 -2.5,-2.5 l -5.5,0 -3.5,0 c -1.385,0 -2.5,-1.115 -2.5,-2.5 0,-1.385 1.115,-2.5 2.5,-2.5 l 3.5,0 0,-0.051 c 1.1441,-0.2302 2,-1.2354 2,-2.4493 0,-1.2138 -0.8559,-2.219 -2,-2.4492 l 0,-0.051 -35,0 z m 48.5,-15 c -1.385,0 -2.5,1.115 -2.5,2.5 0,1.385 1.115,2.5 2.5,2.5 l 1,0 c 1.385,0 2.5,-1.115 2.5,-2.5 0,-1.385 -1.115,-2.5 -2.5,-2.5 z" class="color8fb6d7 svgShape"></path><path fill="#fe494c" d="m 1358.5,1167.3622 c -1.385,0 -2.5,1.115 -2.5,2.5 0,1.385 1.115,2.5 2.5,2.5 l 2,0 0.5,0 0,0.051 c 1.1441,0.2302 2,1.2353 2,2.4492 0,1.2138 -0.8559,2.219 -2,2.4492 l 0,0.051 -0.5,0 -10,0 c -1.385,0 -2.5,1.115 -2.5,2.5 0,1.385 1.115,2.5 2.5,2.5 l 14.5,0 1.5,0 c 1.385,0 2.5,1.115 2.5,2.5 0,1.385 -1.115,2.5 -2.5,2.5 l -1.5,0 -1.5,0 c -1.385,0 -2.5,1.115 -2.5,2.5 0,1.385 1.115,2.5 2.5,2.5 l 29.5,0 0,-25 -32,0 z m -4,20 c -1.385,0 -2.5,1.115 -2.5,2.5 0,1.385 1.115,2.5 2.5,2.5 l 1,0 c 1.385,0 2.5,-1.115 2.5,-2.5 0,-1.385 -1.115,-2.5 -2.5,-2.5 z" class="coloree7581 svgShape"></path><path fill="none" stroke="#000000" stroke-linecap="round" stroke-linejoin="round" d="M1350 1194.8621l11.4375 0M1368.138 1194.8621l77.362 0M1364.4648 1194.8621l1.1407 0" class="colorStroke105286 svgStroke" stroke-width="0.5"></path></g><g transform="translate(735.808 277)" fill="#965252" class="color000 svgShape"><path fill="#f0f4f7" fill-rule="evenodd" stroke="#000000" d="m 637.49984,1429.1857 0,-26.5279 c 0,-0.995 0.79907,-1.7956 1.79164,-1.7956 l 39.41672,0 c 0.99257,0 1.79164,0.8006 1.79164,1.7956 l 0,26.5279 z" class="colorf0f4f7 svgShape colorStroke105286 svgStroke" stroke-width="0.5"></path><path fill="#406b95" stroke="#000000" stroke-linejoin="round" d="m 683.50038,1426.8907 c 0,2.7546 -2.21799,4.9715 -4.97307,4.9715 l -39.0544,0 c -2.75508,0 -4.97307,-2.2169 -4.97307,-4.9715 z" class="color406b95 svgShape colorStroke105286 svgStroke" stroke-width="0.5"></path><path fill="#fe494c" stroke="#000000" d="m 654.50011,1426.8907 9,0 c 0,0 0,0.5918 0,1.3271 0,0.7354 -0.57342,1.3272 -1.28571,1.3272 l -6.42858,0 c -0.71228,0 -1.28571,-0.5918 -1.28571,-1.3272 z" class="color8fb6d7 svgShape colorStroke105286 svgStroke" stroke-width="0.5"></path><path fill="#d2dce9" d="m 668.93749,1424.1128 -19.31265,0 -9.375,0 0,-20.5051 37.5,0 0,20.5051 -3.43735,0" class="colord2dce9 svgShape"></path><path fill="none" stroke="#000000" stroke-linejoin="round" stroke-width="0.5" d="m 648.74999,1424.1128 -8.50015,0 0,-20.5051 37.5,0 0,20.5051 -18.12485,0" class="colorStroke105286 svgStroke"></path></g><g transform="matrix(.90849 0 0 .90849 1334.747 767.65)" fill="#965252" class="color000 svgShape"><path fill="none" stroke="#000000" stroke-linecap="round" stroke-linejoin="round" stroke-width="0.5" d="m 46.523999,1022.9441 0,-2.1845 c 0,-0.979 0.793096,-1.7672 1.77824,-1.7672 0.985147,0 1.778248,0.7882 1.778248,1.7672 l 0,2.1845" class="colorStroke105286 svgStroke"></path><rect width="7.515" height="8.701" x="45.138" y="1021.563" fill="#2dbca4" stroke="#000000" stroke-linecap="round" stroke-linejoin="round" stroke-width="0.5" rx=".417" ry=".396" class="color2dbca4 svgShape colorStroke105286 svgStroke"></rect><circle cx="47.309" cy="1022.952" r=".491" fill="#ffffff" class="colorfff svgShape"></circle><circle cx="50.869" cy="1022.952" r=".491" fill="#ffffff" class="colorfff svgShape"></circle><path fill="none" stroke="#000000" stroke-linecap="round" stroke-linejoin="round" stroke-width="0.5" d="m 47.315031,1022.9452 0,-2.1843 c 0,-0.9791 0.793097,-1.7673 1.77824,-1.7673 0.985147,0 1.778247,0.7882 1.778247,1.7673 l 0,2.1843" class="colorStroke105286 svgStroke"></path><path fill="#70979c" stroke="#000000" stroke-linecap="round" stroke-linejoin="round" stroke-width="0.5" d="m 44.742599,1021.5638 c -0.219116,0 -0.395516,0.1763 -0.395516,0.3955 l 0,7.9103 c 0,0.2191 0.1764,0.3955 0.395516,0.3955 l 1.186549,0 c -0.219116,0 -0.395516,-0.1764 -0.395516,-0.3955 l 0,-7.9103 c 0,-0.2192 0.1764,-0.3955 0.395516,-0.3955 z" class="color70979c svgShape colorStroke105286 svgStroke"></path><path fill="#7d9ec7" stroke="#000000" stroke-linecap="round" stroke-linejoin="round" stroke-width="0.5" d="m 44.742599,1021.5638 c -0.219116,0 -0.395516,0.1763 -0.395516,0.3955 l 0,0.014 a 0.59326969,0.48779306 0 0 0 0.296637,0.4196 0.59326969,0.48779306 0 0 0 0.593273,0 0.59326969,0.48779306 0 0 0 0.296639,-0.4196 0.59326969,0.48779306 0 0 0 0,-0.014 c 0,-0.2192 0.1764,-0.3955 0.395516,-0.3955 l -1.186549,0 z" class="color7d9ec7 svgShape colorStroke105286 svgStroke"></path></g><g stroke="#000000" transform="translate(1362.809 662.959)" fill="#965252" class="color000 svgShape colorStroke496078 svgStroke" stroke-width="0.5"><path fill="#fe494c" stroke="#000000" stroke-linecap="round" stroke-linejoin="round" stroke-width="0.5" d="m 13.248,1017.654 37.504,0 3.998031,5.4164 -45.5000625,0 z" class="coloree7581 svgShape colorStroke105286 svgStroke"></path><path fill="#fe494c" stroke="#000000" stroke-linecap="round" stroke-linejoin="round" stroke-width="0.5" d="m -13.386365,1023.1375 a 2.0681818,2.0893478 0 0 1 -1.034091,1.8094 2.0681818,2.0893478 0 0 1 -2.068182,0 2.0681818,2.0893478 0 0 1 -1.034091,-1.8094 l 2.068182,0 z" transform="scale(-1 1)" class="coloree7581 svgShape colorStroke105286 svgStroke"></path><path fill="#2dbca4" stroke="#000000" stroke-linecap="round" stroke-linejoin="round" stroke-width="0.5" d="m -9.2500021,1023.1375 a 2.0681818,2.0893478 0 0 1 -1.0340909,1.8094 2.0681818,2.0893478 0 0 1 -2.068182,0 2.0681818,2.0893478 0 0 1 -1.034091,-1.8094 l 2.068182,0 z" transform="scale(-1 1)" class="color2dbca4 svgShape colorStroke105286 svgStroke"></path><path fill="#fe494c" stroke="#000000" stroke-linecap="round" stroke-linejoin="round" stroke-width="0.5" d="m -21.659092,1023.1375 a 2.0681818,2.0893478 0 0 1 -1.034091,1.8094 2.0681818,2.0893478 0 0 1 -2.068182,0 2.0681818,2.0893478 0 0 1 -1.034091,-1.8094 l 2.068182,0 z" transform="scale(-1 1)" class="coloree7581 svgShape colorStroke105286 svgStroke"></path><path fill="#2dbca4" stroke="#000000" stroke-linecap="round" stroke-linejoin="round" stroke-width="0.5" d="m -17.522728,1023.1375 a 2.0681818,2.0893478 0 0 1 -1.034091,1.8094 2.0681818,2.0893478 0 0 1 -2.068182,0 2.0681818,2.0893478 0 0 1 -1.034091,-1.8094 l 2.068182,0 z" transform="scale(-1 1)" class="color2dbca4 svgShape colorStroke105286 svgStroke"></path><path fill="#fe494c" stroke="#000000" stroke-linecap="round" stroke-linejoin="round" stroke-width="0.5" d="m -29.931818,1023.1375 a 2.0681818,2.0893478 0 0 1 -1.034091,1.8094 2.0681818,2.0893478 0 0 1 -2.068182,0 2.0681818,2.0893478 0 0 1 -1.034091,-1.8094 l 2.068182,0 z" transform="scale(-1 1)" class="coloree7581 svgShape colorStroke105286 svgStroke"></path><path fill="#2dbca4" stroke="#000000" stroke-linecap="round" stroke-linejoin="round" stroke-width="0.5" d="m -25.795454,1023.1375 a 2.0681818,2.0893478 0 0 1 -1.034091,1.8094 2.0681818,2.0893478 0 0 1 -2.068182,0 2.0681818,2.0893478 0 0 1 -1.034091,-1.8094 l 2.068182,0 z" transform="scale(-1 1)" class="color2dbca4 svgShape colorStroke105286 svgStroke"></path><path fill="#fe494c" stroke="#000000" stroke-linecap="round" stroke-linejoin="round" stroke-width="0.5" d="m -38.204546,1023.1375 a 2.0681818,2.0893478 0 0 1 -1.034091,1.8094 2.0681818,2.0893478 0 0 1 -2.068182,0 2.0681818,2.0893478 0 0 1 -1.034091,-1.8094 l 2.068182,0 z" transform="scale(-1 1)" class="coloree7581 svgShape colorStroke105286 svgStroke"></path><path fill="#2dbca4" stroke="#000000" stroke-linecap="round" stroke-linejoin="round" stroke-width="0.5" d="m -34.068182,1023.1375 a 2.0681818,2.0893478 0 0 1 -1.034091,1.8094 2.0681818,2.0893478 0 0 1 -2.068182,0 2.0681818,2.0893478 0 0 1 -1.034091,-1.8094 l 2.068182,0 z" transform="scale(-1 1)" class="color2dbca4 svgShape colorStroke105286 svgStroke"></path><path fill="#fe494c" stroke="#000000" stroke-linecap="round" stroke-linejoin="round" stroke-width="0.5" d="m -46.477274,1023.1375 a 2.0681818,2.0893478 0 0 1 -1.034091,1.8094 2.0681818,2.0893478 0 0 1 -2.068182,0 2.0681818,2.0893478 0 0 1 -1.034091,-1.8094 l 2.068182,0 z" transform="scale(-1 1)" class="coloree7581 svgShape colorStroke105286 svgStroke"></path><path fill="#2dbca4" stroke="#000000" stroke-linecap="round" stroke-linejoin="round" stroke-width="0.5" d="m -42.34091,1023.1375 a 2.0681818,2.0893478 0 0 1 -1.034091,1.8094 2.0681818,2.0893478 0 0 1 -2.068182,0 2.0681818,2.0893478 0 0 1 -1.034091,-1.8094 l 2.068182,0 z" transform="scale(-1 1)" class="color2dbca4 svgShape colorStroke105286 svgStroke"></path><path fill="#2dbca4" stroke="#000000" stroke-linecap="round" stroke-linejoin="round" stroke-width="0.5" d="M54.749998 1023.1375a2.0681818 2.0893478 0 0 1-1.034091 1.8094 2.0681818 2.0893478 0 0 1-2.068182 0 2.0681818 2.0893478 0 0 1-1.034091-1.8094l2.068182 0zM16.74554 1017.654l30.50892 0 3.29508 5.4164-37.09908 0z" class="color2dbca4 svgShape colorStroke105286 svgStroke"></path><path fill="#fe494c" stroke="#000000" stroke-linecap="round" stroke-linejoin="round" stroke-width="0.5" d="m 20.142065,1017.654 23.71587,0 2.592129,5.4164 -28.900128,0 z" class="coloree7581 svgShape colorStroke105286 svgStroke"></path><path fill="#2dbca4" stroke="#000000" stroke-linecap="round" stroke-linejoin="round" stroke-width="0.5" d="m 23.678197,1017.654 16.643606,0 1.928394,5.4164 -20.500394,0 z" class="color2dbca4 svgShape colorStroke105286 svgStroke"></path><path fill="#fe494c" stroke="#000000" stroke-linecap="round" stroke-linejoin="round" stroke-width="0.5" d="m 27.019948,1017.654 9.860104,0 1.269895,5.4164 -12.399894,0 z" class="coloree7581 svgShape colorStroke105286 svgStroke"></path><path fill="#2dbca4" stroke="#000000" stroke-linecap="round" stroke-linejoin="round" stroke-width="0.5" d="m 30.2981,1017.654 3.4038,0 0.348201,5.4164 -4.100202,0 z" class="color2dbca4 svgShape colorStroke105286 svgStroke"></path></g><g transform="matrix(.51466 -.1379 .1379 .51466 1252.338 996.305)" fill="#965252" class="color000 svgShape"><path fill="#f9b537" d="m -86.529388,1343.7751 0.254496,-0.085 8.622885,0 2.166566,-6.6736 -12.120086,0 -0.553064,-0.022" class="colorf9b537 svgShape"></path><path fill="none" stroke="#000000" stroke-linecap="round" stroke-linejoin="round" stroke-width="0.5" d="m -90.485996,1335.365 1.170934,0 0.76499,0 2.804572,11.6729 6.931586,0" class="colorStroke105286 svgStroke"></path><ellipse cx="-85.552" cy="1348.699" fill="#70979c" stroke="#000000" stroke-width="0.5" rx="1.667" ry="1.667" class="color70979c svgShape colorStroke105286 svgStroke"></ellipse><ellipse cx="-78.952" cy="1348.699" fill="#70979c" stroke="#000000" stroke-width="0.5" rx="1.667" ry="1.667" class="color70979c svgShape colorStroke105286 svgStroke"></ellipse><path fill="none" stroke="#000000" stroke-linecap="round" stroke-linejoin="round" stroke-width="0.5" d="m -82.385694,1340.3542 6.000205,0" class="colorStroke105286 svgStroke"></path><path fill="none" stroke="#000000" stroke-linecap="round" stroke-linejoin="round" stroke-width="0.5" d="m -78.813914,1347.0379 -6.931586,0 -0.783888,-3.2628 0.254496,-0.085 8.622885,0 2.166566,-6.6736 -12.120086,0 -0.553064,-0.022 -0.391481,-1.6295" class="colorStroke105286 svgStroke"></path></g><g transform="matrix(1.2992 0 0 1.2992 1344.587 389.704)" fill="#965252" class="color000 svgShape"><g transform="translate(12.368 687) scale(.30499)" fill="#965252" class="color000 svgShape"><g transform="rotate(120 87.86 1069.838)" fill="#965252" class="color000 svgShape"><rect width="25" height="13" x="-237.358" y="1004.618" fill="#105286" rx="1.529" ry="1.529" transform="rotate(-15)" class="color105286 svgShape"></rect><path fill="#2dbca4" d="m 34.493391,1031.8111 a 2.547005,2.547005 0 0 1 -1.801024,3.1194 l 1.538161,5.7405 a 2.547005,2.547005 0 0 1 3.119449,1.8011 l 17.221475,-4.6145 a 2.547005,2.547005 0 0 1 1.800973,-3.1195 l -1.538162,-5.7405 a 2.547005,2.547005 0 0 1 -3.119397,-1.8009 l -17.221475,4.6144 z" class="color2dbca4 svgShape"></path><path fill="#105286" style="line-height:normal;text-indent:0;text-align:start;text-decoration-line:none;text-decoration-style:solid;text-decoration-color:#000;text-transform:none;block-progression:tb;isolation:auto;mix-blend-mode:normal" d="m 36.031614,1036.0956 c -0.527743,0.1414 -0.848525,0.697 -0.707106,1.2248 0.141393,0.5277 0.697001,0.8485 1.224745,0.7071 0.527743,-0.1414 0.848499,-0.6971 0.707106,-1.2248 -0.141418,-0.5277 -0.697001,-0.8485 -1.224745,-0.7071 z" color="#000" font-family="sans-serif" font-weight="400" overflow="visible" white-space="normal" class="color105286 svgShape"></path><path fill="#496078" style="line-height:normal;text-indent:0;text-align:start;text-decoration-line:none;text-decoration-style:solid;text-decoration-color:#000;text-transform:none;block-progression:tb;isolation:auto;mix-blend-mode:normal" d="m 52.452354,1031.6957 c -0.527744,0.1414 -0.848526,0.697 -0.707107,1.2248 0.141393,0.5276 0.697001,0.8485 1.224745,0.7071 0.527743,-0.1414 0.848499,-0.6971 0.707106,-1.2248 -0.141418,-0.5278 -0.697001,-0.8485 -1.224744,-0.7071 z" color="#000" font-family="sans-serif" font-weight="400" overflow="visible" white-space="normal" class="color496078 svgShape"></path><path fill="#496078" fill-rule="evenodd" d="m 41.065002,1031.6415 0.0025,0.01 0,0 0.258819,0.9659 0.981018,-0.2629 c 0.901444,-0.2415 1.47079,0.063 1.77687,0.5491 l -2.501597,0.6703 0.258819,0.9659 2.501597,-0.6703 c -0.0215,0.5741 -0.361238,1.124 -1.263781,1.3658 l -0.309398,0.083 -0.0048,0 -0.0028,0 -0.664074,0.1779 0.258819,0.9659 0.273553,-0.073 3.725307,2.1157 0.495162,-0.8687 -2.924601,-1.663 c 0.988873,-0.5004 1.452628,-1.4604 1.40701,-2.3707 l 1.318716,-0.3533 -0.258819,-0.966 -1.318716,0.3534 c -0.168042,-0.3274 -0.418545,-0.6125 -0.722915,-0.8416 l 1.782812,-0.4777 -0.258819,-0.9659 z" color="#000" font-family="sans-serif" font-weight="400" overflow="visible" white-space="normal" style="line-height:normal;text-indent:0;text-align:start;text-decoration-line:none;text-decoration-style:solid;text-decoration-color:#000;text-transform:none;block-progression:tb;isolation:auto;mix-blend-mode:normal" class="color496078 svgShape"></path></g><g transform="scale(1 -1) rotate(-60 -1717.514 -82.516)" fill="#965252" class="color000 svgShape"><rect width="25" height="13" x="-237.358" y="1004.618" fill="#105286" rx="1.529" ry="1.529" transform="rotate(-15)" class="color105286 svgShape"></rect><path fill="#2dbca4" d="m 34.493391,1031.8111 a 2.547005,2.547005 0 0 1 -1.801024,3.1194 l 1.538161,5.7405 a 2.547005,2.547005 0 0 1 3.119449,1.8011 l 17.221475,-4.6145 a 2.547005,2.547005 0 0 1 1.800973,-3.1195 l -1.538162,-5.7405 a 2.547005,2.547005 0 0 1 -3.119397,-1.8009 l -17.221475,4.6144 z" class="color2dbca4 svgShape"></path><path fill="#105286" d="m 36.031614,1036.0956 c -0.527743,0.1414 -0.848525,0.697 -0.707106,1.2248 0.141393,0.5277 0.697001,0.8485 1.224745,0.7071 0.527743,-0.1414 0.848499,-0.6971 0.707106,-1.2248 -0.141418,-0.5277 -0.697001,-0.8485 -1.224745,-0.7071 z" color="#000" font-family="sans-serif" font-weight="400" overflow="visible" white-space="normal" style="line-height:normal;text-indent:0;text-align:start;text-decoration-line:none;text-decoration-style:solid;text-decoration-color:#000;text-transform:none;block-progression:tb;isolation:auto;mix-blend-mode:normal" class="color105286 svgShape"></path><path fill="#496078" d="m 52.452354,1031.6957 c -0.527744,0.1414 -0.848526,0.697 -0.707107,1.2248 0.141393,0.5276 0.697001,0.8485 1.224745,0.7071 0.527743,-0.1414 0.848499,-0.6971 0.707106,-1.2248 -0.141418,-0.5278 -0.697001,-0.8485 -1.224744,-0.7071 z" color="#000" font-family="sans-serif" font-weight="400" overflow="visible" white-space="normal" style="line-height:normal;text-indent:0;text-align:start;text-decoration-line:none;text-decoration-style:solid;text-decoration-color:#000;text-transform:none;block-progression:tb;isolation:auto;mix-blend-mode:normal" class="color496078 svgShape"></path><path fill="#496078" fill-rule="evenodd" style="line-height:normal;text-indent:0;text-align:start;text-decoration-line:none;text-decoration-style:solid;text-decoration-color:#000;text-transform:none;block-progression:tb;isolation:auto;mix-blend-mode:normal" d="m 41.065002,1031.6415 0.0025,0.01 0,0 0.258819,0.9659 0.981018,-0.2629 c 0.901444,-0.2415 1.47079,0.063 1.77687,0.5491 l -2.501597,0.6703 0.258819,0.9659 2.501597,-0.6703 c -0.0215,0.5741 -0.361238,1.124 -1.263781,1.3658 l -0.309398,0.083 -0.0048,0 -0.0028,0 -0.664074,0.1779 0.258819,0.9659 0.273553,-0.073 3.725307,2.1157 0.495162,-0.8687 -2.924601,-1.663 c 0.988873,-0.5004 1.452628,-1.4604 1.40701,-2.3707 l 1.318716,-0.3533 -0.258819,-0.966 -1.318716,0.3534 c -0.168042,-0.3274 -0.418545,-0.6125 -0.722915,-0.8416 l 1.782812,-0.4777 -0.258819,-0.9659 z" color="#000" font-family="sans-serif" font-weight="400" overflow="visible" white-space="normal" class="color496078 svgShape"></path></g><g transform="rotate(105 85.972 1075.026)" fill="#965252" class="color000 svgShape"><rect width="25" height="13" x="-237.358" y="1004.618" fill="#105286" rx="1.529" ry="1.529" transform="rotate(-15)" class="color105286 svgShape"></rect><path fill="#2dbca4" d="m 34.493391,1031.8111 a 2.547005,2.547005 0 0 1 -1.801024,3.1194 l 1.538161,5.7405 a 2.547005,2.547005 0 0 1 3.119449,1.8011 l 17.221475,-4.6145 a 2.547005,2.547005 0 0 1 1.800973,-3.1195 l -1.538162,-5.7405 a 2.547005,2.547005 0 0 1 -3.119397,-1.8009 l -17.221475,4.6144 z" class="color2dbca4 svgShape"></path><path fill="#105286" d="m 36.031614,1036.0956 c -0.527743,0.1414 -0.848525,0.697 -0.707106,1.2248 0.141393,0.5277 0.697001,0.8485 1.224745,0.7071 0.527743,-0.1414 0.848499,-0.6971 0.707106,-1.2248 -0.141418,-0.5277 -0.697001,-0.8485 -1.224745,-0.7071 z" color="#000" font-family="sans-serif" font-weight="400" overflow="visible" white-space="normal" style="line-height:normal;text-indent:0;text-align:start;text-decoration-line:none;text-decoration-style:solid;text-decoration-color:#000;text-transform:none;block-progression:tb;isolation:auto;mix-blend-mode:normal" class="color105286 svgShape"></path><path fill="#496078" d="m 52.452354,1031.6957 c -0.527744,0.1414 -0.848526,0.697 -0.707107,1.2248 0.141393,0.5276 0.697001,0.8485 1.224745,0.7071 0.527743,-0.1414 0.848499,-0.6971 0.707106,-1.2248 -0.141418,-0.5278 -0.697001,-0.8485 -1.224744,-0.7071 z" color="#000" font-family="sans-serif" font-weight="400" overflow="visible" white-space="normal" style="line-height:normal;text-indent:0;text-align:start;text-decoration-line:none;text-decoration-style:solid;text-decoration-color:#000;text-transform:none;block-progression:tb;isolation:auto;mix-blend-mode:normal" class="color496078 svgShape"></path><path fill="#105286" fill-rule="evenodd" style="line-height:normal;text-indent:0;text-align:start;text-decoration-line:none;text-decoration-style:solid;text-decoration-color:#000;text-transform:none;block-progression:tb;isolation:auto;mix-blend-mode:normal" d="m 41.065002,1031.6415 0.0025,0.01 0,0 0.258819,0.9659 0.981018,-0.2629 c 0.901444,-0.2415 1.47079,0.063 1.77687,0.5491 l -2.501597,0.6703 0.258819,0.9659 2.501597,-0.6703 c -0.0215,0.5741 -0.361238,1.124 -1.263781,1.3658 l -0.309398,0.083 -0.0048,0 -0.0028,0 -0.664074,0.1779 0.258819,0.9659 0.273553,-0.073 3.725307,2.1157 0.495162,-0.8687 -2.924601,-1.663 c 0.988873,-0.5004 1.452628,-1.4604 1.40701,-2.3707 l 1.318716,-0.3533 -0.258819,-0.966 -1.318716,0.3534 c -0.168042,-0.3274 -0.418545,-0.6125 -0.722915,-0.8416 l 1.782812,-0.4777 -0.258819,-0.9659 z" color="#000" font-family="sans-serif" font-weight="400" overflow="visible" white-space="normal" class="color105286 svgShape"></path></g></g><g transform="translate(12.368 679.94) scale(.30499)" fill="#965252" class="color000 svgShape"><rect width="28.095" height="18.295" x="121.524" y="1068.215" fill="#7d9ec7" rx="1.837" ry="1.837" class="color7d9ec7 svgShape"></rect><path fill="#5e7c9b" d="m 121.52408,1082.8856 0,0.5273 0,1.2019 0,0.02 0,0 c 0.0111,1.0398 0.84925,1.875 1.89171,1.875 l 24.30806,0 c 1.04246,0 1.88075,-0.8352 1.89172,-1.875 l 0,0 0,-0.02 0,-1.2019 0,-0.5273 -1.89343,0 -24.30806,0 z" class="color5e7c9b svgShape"></path><path fill="#fe494c" fill-rule="evenodd" d="m 149.61908,1076.4629 -10.45406,0 -1.30671,1.3067 0,1.3068 0,1.3067 1.30671,1.3068 10.45406,0 z" class="coloree7581 svgShape"></path><circle cx="140.145" cy="1079.076" r=".98" fill="#ffcd00" class="colorffcd00 svgShape"></circle><path fill="#e6dfd2" d="m 123.71442,1069.3315 c -0.66566,0 -1.21483,0.5492 -1.21483,1.2149 l 0,3.1686 a 0.42861435,0.42861435 0 1 0 0.85706,0 l 0,-3.1686 c 0,-0.2056 0.15214,-0.3576 0.35777,-0.3576 l 17.73463,0 a 0.42865721,0.42865721 0 0 0 0,-0.8573 l -17.73463,0 z" color="#000" font-family="sans-serif" font-weight="400" overflow="visible" white-space="normal" style="line-height:normal;text-indent:0;text-align:start;text-decoration-line:none;text-decoration-style:solid;text-decoration-color:#000;text-transform:none;block-progression:tb;isolation:auto;mix-blend-mode:normal" class="colore6dfd2 svgShape"></path></g></g><path fill="none" stroke="#000000" stroke-linecap="round" stroke-miterlimit="3.7" stroke-width="0.5" d="m 1412.3768,1691.5255 c -0.3358,0 -0.6055,0.2698 -0.6055,0.6056 l 0,1.1992 -2.3242,0.6231 c -0.3243,0.087 -0.5166,0.4178 -0.4297,0.7421 l 0.4512,1.6797 c -0.3694,0.036 -0.6602,0.3358 -0.6602,0.7149 l 0,5.0859 0,0.209 0,0.4766 0,0.01 0,0.012 c 0,0.4032 0.3253,0.7286 0.7285,0.7286 l 0.012,0 c 0,0 0.01,0 0.01,0 l 9.6328,0 c 0,0 0.01,0 0.01,0 l 0.012,0 c 0.4032,0 0.7286,-0.3254 0.7286,-0.7286 l 0,-1.1816 0,-2.0703 0,-2.541 c 0,-0.3977 -0.3175,-0.7158 -0.7129,-0.7246 l 0.4472,-1.67 c 0.087,-0.3243 -0.1054,-0.6553 -0.4297,-0.7421 l -2.3242,-0.6231 0,-1.1992 c 0,-0.3358 -0.2697,-0.6056 -0.6054,-0.6056 l -3.9395,0 z" class="colorStroke105286 svgStroke"></path></g></svg></g></svg>